HIERARCHY
ROOT reference
{
  OFFSET 0 0 0
  CHANNELS 6 Xposition Yposition Zposition Zrotation Xrotation Yrotation
  JOINT Hips
  {
    OFFSET 106.437 76.8918 20.6558
    CHANNELS 6 Xposition Yposition Zposition Zrotation Xrotation Yrotation
    JOINT Spine
    {
      OFFSET 0 8.25043 0
      CHANNELS 6 Xposition Yposition Zposition Zrotation Xrotation Yrotation
      JOINT Spine1
      {
        OFFSET 0 26.9735 0
        CHANNELS 6 Xposition Yposition Zposition Zrotation Xrotation Yrotation
        JOINT Neck
        {
          OFFSET 0 26.8627 2.44206
          CHANNELS 6 Xposition Yposition Zposition Zrotation Xrotation Yrotation
          JOINT Head
          {
            OFFSET 0 14.0861 -2.0123
            CHANNELS 6 Xposition Yposition Zposition Zrotation Xrotation Yrotation
            End Site
            {
              OFFSET 0 25.1537 0
            }
          }
        }
        JOINT LeftShoulder
        {
          OFFSET 4.03461 23.8974 -0.31355
          CHANNELS 6 Xposition Yposition Zposition Zrotation Xrotation Yrotation
          JOINT LeftArm
          {
            OFFSET 14.6104 0 0
            CHANNELS 6 Xposition Yposition Zposition Zrotation Xrotation Yrotation
            JOINT LeftForeArm
            {
              OFFSET 28.8903 0 0
              CHANNELS 6 Xposition Yposition Zposition Zrotation Xrotation Yrotation
              JOINT LeftHand
              {
                OFFSET 28.8168 0 0
                CHANNELS 6 Xposition Yposition Zposition Zrotation Xrotation Yrotation
                End Site
                {
                  OFFSET 15.0922 0 0
                }
              }
            }
          }
        }
        JOINT RightShoulder
        {
          OFFSET -4.01401 23.8974 -0.31355
          CHANNELS 6 Xposition Yposition Zposition Zrotation Xrotation Yrotation
          JOINT RightArm
          {
            OFFSET -14.6104 0 0
            CHANNELS 6 Xposition Yposition Zposition Zrotation Xrotation Yrotation
            JOINT RightForeArm
            {
              OFFSET -28.8903 0 0
              CHANNELS 6 Xposition Yposition Zposition Zrotation Xrotation Yrotation
              JOINT RightHand
              {
                OFFSET -28.8168 0 0
                CHANNELS 6 Xposition Yposition Zposition Zrotation Xrotation Yrotation
                End Site
                {
                  OFFSET -15.0922 0 0
                }
              }
            }
          }
        }
      }
    }
    JOINT LeftUpLeg
    {
      OFFSET 10.0615 0 0
      CHANNELS 6 Xposition Yposition Zposition Zrotation Xrotation Yrotation
      JOINT LeftLeg
      {
        OFFSET 0 -36.0896 0
        CHANNELS 6 Xposition Yposition Zposition Zrotation Xrotation Yrotation
        JOINT LeftFoot
        {
          OFFSET 0 -47.1136 0
          CHANNELS 6 Xposition Yposition Zposition Zrotation Xrotation Yrotation
          JOINT LeftToeBase
          {
            OFFSET 0 -6.53997 15.0922
            CHANNELS 6 Xposition Yposition Zposition Zrotation Xrotation Yrotation
            End Site
            {
              OFFSET 0 0 4.0246
            }
          }
        }
      }
    }
    JOINT RightUpLeg
    {
      OFFSET -10.0615 0 0
      CHANNELS 6 Xposition Yposition Zposition Zrotation Xrotation Yrotation
      JOINT RightLeg
      {
        OFFSET 0 -36.0896 0
        CHANNELS 6 Xposition Yposition Zposition Zrotation Xrotation Yrotation
        JOINT RightFoot
        {
          OFFSET 0 -47.1136 0
          CHANNELS 6 Xposition Yposition Zposition Zrotation Xrotation Yrotation
          JOINT RightToeBase
          {
            OFFSET 0 -6.53997 15.0922
            CHANNELS 6 Xposition Yposition Zposition Zrotation Xrotation Yrotation
            End Site
            {
              OFFSET 0 0 4.0246
            }
          }
        }
      }
    }
  }
}
MOTION
Frames:	6
Frame Time:	0.004
0 0 0 0 0 -0 8.47877 82.7421 -210.376 -0.792882 -2.23505 2.82576 3.55271e-015 8.25043 0 -0.0893531 -3.97244 0.557558 -3.55271e-015 26.9735 0 0.844457 -0.47478 0.568559 3.55271e-015 26.8627 2.44206 6.13879 21.727 11.2347 0 14.0861 -2.0123 -7.95492 7.68402 11.4341 4.03461 23.8974 -0.31355 21.1031 -1.02592 -1.04513 14.6104 2.84217e-014 0 -20.6564 -1.67607 -1.97111 28.8903 0 -2.84217e-014 1.28276 0.135609 0.833061 28.8168 -2.84217e-014 -2.84217e-014 11.2544 0.266426 1.41659 -4.01401 23.8974 -0.31355 -19.0059 -2.70191 0.907175 -14.6104 2.84217e-014 -2.84217e-014 11.547 -0.730119 7.51013 -28.8903 -2.84217e-014 2.84217e-014 -6.91762 1.88452 1.12804 -28.8168 0 0 4.12477 1.79549 -4.35534 10.0615 1.42109e-014 2.84217e-014 6.67788 3.38728 -0.817907 0 -36.0896 -2.84217e-014 -5.43856 12.5307 -11.5733 0 -47.1136 0 9.72764 -15.1539 27.8682 0 -6.53997 15.0922 -5.96354e-016 -1.59028e-015 -6.36111e-015 -10.0615 0 0 -2.02929 5.5598 1.89757 3.55271e-015 -36.0896 -2.84217e-014 4.73304 9.81368 4.50757 -3.55271e-015 -47.1136 2.84217e-014 -8.06093 -17.4079 -13.4478 0 -6.53997 15.0922 4.96962e-017 7.95139e-016 -3.97569e-016 
0 0 0 0 0 -0 8.47877 82.7421 -210.37 -0.792882 -2.23505 2.82576 3.55271e-015 8.25043 -2.84217e-014 -0.0893531 -3.97244 0.557558 -3.55271e-015 26.9735 0 0.844457 -0.47478 0.568559 0 26.8627 2.44206 6.11896 21.727 11.2347 0 14.0861 -2.0123 -7.92797 7.69847 11.4438 4.03461 23.8974 -0.31355 21.1031 -1.02592 -1.04513 14.6104 2.84217e-014 2.84217e-014 -20.6686 -1.67343 -1.97111 28.8903 0 2.84217e-014 1.31228 0.091593 0.823457 28.8168 -2.84217e-014 -2.84217e-014 11.2139 0.226985 1.46623 -4.01401 23.8974 -0.31355 -19.0059 -2.70191 0.907175 -14.6104 2.84217e-014 0 11.5404 -0.703221 7.51009 -28.8903 2.84217e-014 2.84217e-014 -6.9143 1.859 1.12803 -28.8168 -2.84217e-014 0 4.07703 1.77099 -4.38455 10.0615 1.42109e-014 0 6.67795 3.38728 -0.819106 0 -36.0896 2.84217e-014 -5.44782 12.5322 -11.531 0 -47.1136 2.84217e-014 9.73426 -15.1551 27.8347 0 -6.53997 15.0922 -8.94531e-016 -3.97569e-016 -3.18055e-015 -10.0615 0 -2.84217e-014 -2.03062 5.55975 1.91128 1.77636e-015 -36.0896 2.84217e-014 4.738 9.81407 4.47847 0 -47.1136 2.84217e-014 -8.06076 -17.4086 -13.4378 1.77636e-015 -6.53997 15.0922 -1.09332e-015 -7.95139e-016 -3.97569e-016 
0 0 0 0 0 -0 8.47877 82.7421 -210.364 -0.792882 -2.23505 2.82576 3.55271e-015 8.25043 0 -0.0893263 -3.97519 0.55756 0 26.9735 -2.84217e-014 0.84444 -0.47303 0.568559 0 26.8627 2.44206 6.12273 21.727 11.2347 0 14.0861 -2.0123 -7.93564 7.72348 11.4357 4.03461 23.8974 -0.31355 21.1023 -1.02592 -1.04513 14.6104 0 0 -20.662 -1.71456 -1.97115 28.8903 -2.84217e-014 -2.84217e-014 1.30643 0.126701 0.848096 28.8168 0 0 11.2211 0.258007 1.42936 -4.01401 23.8974 -0.31355 -19.0059 -2.70191 0.907175 -14.6104 0 0 11.5279 -0.720178 7.51011 -28.8903 2.84217e-014 0 -6.90155 1.84379 1.12802 -28.8168 0 0 4.06012 1.75676 -4.3737 10.0615 1.42109e-014 2.84217e-014 6.6773 3.38729 -0.808093 0 -36.0896 -2.84217e-014 -5.43885 12.5411 -11.5629 3.55271e-015 -47.1136 0 9.70939 -15.1719 27.8479 0 -6.53997 15.0922 -2.98177e-016 0 3.18055e-015 -10.0615 0 0 -2.02974 5.55978 1.90221 0 -36.0896 0 4.7336 9.81373 4.50424 0 -47.1136 -2.84217e-014 -8.07766 -17.4072 -13.4574 0 -6.53997 15.0922 4.96962e-017 -7.95139e-016 -0 
0 0 0 0 0 -0 8.47877 82.7421 -210.36 -0.793162 -2.22939 2.82575 0 8.25043 2.84217e-014 -0.0892987 -3.97801 0.557562 3.55271e-015 26.9735 2.84217e-014 0.842964 -0.486952 0.568561 3.55271e-015 26.8627 2.44206 6.11869 21.7328 11.2344 0 14.0861 -2.0123 -7.92524 7.73509 11.4371 4.03461 23.8974 -0.31355 21.113 -1.02489 -1.04513 14.6104 0 0 -20.67 -1.70859 -1.97114 28.8903 0 0 1.28078 0.174092 0.847449 28.8168 0 2.84217e-014 11.2898 0.303272 1.40083 -4.01401 23.8974 -0.31355 -19.0057 -2.70065 0.9111 -14.6104 0 0 11.5272 -0.706206 7.511 -28.8903 0 2.84217e-014 -6.9061 1.8442 1.12829 -28.8168 2.84217e-014 -2.84217e-014 4.06872 1.75649 -4.38033 10.0615 1.42109e-014 2.84217e-014 6.67774 3.38008 -0.817314 -7.10543e-015 -36.0896 0 -5.44922 12.5429 -11.5649 0 -47.1136 2.84217e-014 9.71369 -15.1643 27.8598 -1.42109e-014 -6.53997 15.0922 8.94531e-016 0 -0 -10.0615 -1.42109e-014 2.84217e-014 -2.03205 5.56061 1.92575 0 -36.0896 0 4.73181 9.80291 4.48092 0 -47.1136 0 -8.0612 -17.4075 -13.4537 0 -6.53997 15.0922 -2.98177e-016 -7.95139e-016 -1.19271e-015 
0 0 0 0 0 -0 8.47877 82.7421 -210.356 -0.793583 -2.22085 2.82573 -3.55271e-015 8.25043 0 -0.0892712 -3.98083 0.557564 0 26.9735 0 0.831957 -0.485117 0.56856 0 26.8627 2.44206 6.07658 21.6154 11.1964 0 14.0861 -2.0123 -7.83668 8.03487 11.4154 4.03461 23.8974 -0.31355 21.1204 -1.01448 -1.04323 14.6104 0 0 -20.6724 -1.70082 -1.97113 28.8903 0 -2.84217e-014 1.28619 0.165919 0.848802 28.8168 2.84217e-014 2.84217e-014 11.3052 0.295403 1.40457 -4.01401 23.8974 -0.31355 -19.0056 -2.69728 0.91418 -14.6104 -2.84217e-014 -2.84217e-014 11.5297 -0.704563 7.51637 -28.8903 2.84217e-014 0 -6.91237 1.85421 1.12861 -28.8168 0 2.84217e-014 4.13935 1.76455 -4.36327 10.0615 0 0 6.67675 3.369 -0.803155 0 -36.0896 -2.84217e-014 -5.44325 12.5615 -11.5479 -3.55271e-015 -47.1136 -2.84217e-014 9.69402 -15.1679 27.8365 0 -6.53997 15.0922 1.49089e-015 7.95139e-016 3.18055e-015 -10.0615 -1.42109e-014 -2.84217e-014 -2.03743 5.5505 1.91972 -1.77636e-015 -36.0896 2.84217e-014 4.72869 9.80585 4.4762 -3.55271e-015 -47.1136 0 -8.06475 -17.4112 -13.429 -1.77636e-015 -6.53997 15.0922 -4.96962e-016 0 3.97569e-016 
0 0 0 0 0 -0 8.47877 82.7421 -210.35 -0.793779 -2.2169 2.82573 0 8.25043 0 -0.0892472 -3.98329 0.557566 0 26.9735 -2.84217e-014 0.857641 -0.490774 0.568561 3.55271e-015 26.8627 2.44206 6.05082 21.6199 11.1971 0 14.0861 -2.0123 -7.82293 8.04383 11.4168 4.03461 23.8974 -0.31355 21.1113 -1.02977 -1.04275 14.6104 0 2.84217e-014 -20.6803 -1.67291 -1.96912 28.8903 2.84217e-014 0 1.31298 0.119358 0.843146 28.8168 0 0 11.2693 0.252636 1.44534 -4.01401 23.8974 -0.31355 -19.0194 -2.69361 0.915958 -14.6104 0 0 11.529 -0.673093 7.52138 -28.8903 0 0 -6.92035 1.8242 1.1289 -28.8168 2.84217e-014 0 4.12885 1.73447 -4.38762 10.0615 0 0 6.68911 3.36692 -0.810539 0 -36.0896 0 -5.45146 12.5606 -11.5637 -3.55271e-015 -47.1136 0 9.70728 -15.1669 27.8541 0 -6.53997 15.0922 -6.95746e-016 -7.95139e-016 -6.36111e-015 -10.0615 0 0 -2.03156 5.63072 2.40874 0 -36.0896 0 4.81107 9.62119 3.93548 0 -47.1136 0 -8.04437 -17.3766 -13.3768 -1.77636e-015 -6.53997 15.0922 -1.2921e-015 0 -3.97569e-016 
